<?xml version="1.0" encoding="utf-8"?>
<!-- Generator: Adobe Illustrator 22.0.1, SVG Export Plug-In . SVG Version: 6.00 Build 0)  -->
<svg version="1.1" id="Layer_1" xmlns="http://www.w3.org/2000/svg" xmlns:xlink="http://www.w3.org/1999/xlink" x="0px" y="0px"
	 viewBox="0 0 481.4 273.2" enable-background="new 0 0 481.4 273.2" xml:space="preserve">
<title>Payrun ready</title>
<g id="Layer_2_1_">
	<g id="Layer_17">
		
			<linearGradient id="SVGID_1_" gradientUnits="userSpaceOnUse" x1="381.3022" y1="284.8064" x2="140.8222" y2="-6.3636" gradientTransform="matrix(1 0 0 -1 0 275)">
			<stop  offset="0" style="stop-color:#E3E8FC"/>
			<stop  offset="1" style="stop-color:#E5F0FC"/>
		</linearGradient>
		<path fill="url(#SVGID_1_)" d="M475.7,54.3c-0.6-3.1-1.8-6-3.5-8.6c-2.2-2.6-5.1-4.7-8.3-5.9c-8.3-3.6-18.2-3.1-30.6-3.2
			c-52.6-0.5-317.7,0.4-370.2-0.1c-8.3,0-14.8,4.5-17,11.8s-0.8,15-0.5,22.6s-0.8,16-6.4,21c-8.8,7.9-24.3,4-33,12
			c-6.9,6.4-6.4,17.2-5.6,26.5C3.9,169.1,1,222,1,247.6c0,7.8-2.9,17.1,3.3,21.9c3.4,2.7,8.2,3.2,12.6,3.2
			c53.3,0,352.7,0.6,407.7,0.6c5.5,0,11.5-1,15.6-4.7c5.4-4.8,5.7-13,5.5-20.2c-0.8-36.4-1.7-20-2.5-56.4c-0.1-3.7-0.1-7.6,2-10.6
			c5.5-8.1,19.2-2.8,27.8-7.6c7.6-4.3,8.5-14.6,8.5-23.2C481.2,102.7,479.3,101.9,475.7,54.3z"/>
		
			<linearGradient id="SVGID_2_" gradientUnits="userSpaceOnUse" x1="260.7593" y1="41.8006" x2="453.9193" y2="263.8806" gradientTransform="matrix(1 0 0 -1 0 275)">
			<stop  offset="0" style="stop-color:#B9C7FF"/>
			<stop  offset="1" style="stop-color:#E2E9FF"/>
		</linearGradient>
		<path fill="url(#SVGID_2_)" d="M399.4,23.8v248.9H277.6V23.8c0-13.2,10.7-23.8,23.8-23.8h74.1C388.7,0,399.4,10.7,399.4,23.8z"/>
		
			<linearGradient id="SVGID_3_" gradientUnits="userSpaceOnUse" x1="21.0985" y1="103.4484" x2="290.7485" y2="151.2884" gradientTransform="matrix(1 0 0 -1 0 275)">
			<stop  offset="0" style="stop-color:#A2A4FF"/>
			<stop  offset="1" style="stop-color:#B9C7FF"/>
		</linearGradient>
		<path fill="url(#SVGID_3_)" d="M301.5,0c-13.2,0-23.8,10.7-23.8,23.8v248.9h-138V23.8c0-13.2,10.7-23.8,23.9-23.8c0,0,0,0,0,0
			H301.5z"/>
		
			<linearGradient id="SVGID_4_" gradientUnits="userSpaceOnUse" x1="338.16" y1="122.62" x2="383.66" y2="122.62" gradientTransform="matrix(1 0 0 -1 0 275)">
			<stop  offset="0" style="stop-color:#E2E9FF"/>
			<stop  offset="1" style="stop-color:#B9C7FF"/>
		</linearGradient>
		<ellipse fill="url(#SVGID_4_)" cx="363" cy="152.4" rx="16.2" ry="25.2"/>
		<path fill="#9494F5" d="M167.8,25.5h81.7c4.5,0,8.1,3.6,8.1,8.1v105.1c0,4.5-3.6,8.1-8.1,8.1h-81.7c-4.5,0-8.1-3.6-8.1-8.1V33.6
			C159.7,29.1,163.3,25.5,167.8,25.5z"/>
		
			<linearGradient id="SVGID_5_" gradientUnits="userSpaceOnUse" x1="345.47" y1="73.435" x2="419.27" y2="73.435" gradientTransform="matrix(1 0 0 -1 0 275)">
			<stop  offset="0" style="stop-color:#8683DE"/>
			<stop  offset="1" style="stop-color:#B9C7FF"/>
		</linearGradient>
		<path fill="url(#SVGID_5_)" d="M418.2,272.7h-37.8V179c0-3.1-2.2-5.6-4.9-5.6h-8.4c-8.4,0-15.2-9.6-15.2-21.5s6.8-21.5,15.2-21.5
			h14.7c20,0,36.2,16.3,36.2,36.3L418.2,272.7z"/>
		
			<linearGradient id="SVGID_6_" gradientUnits="userSpaceOnUse" x1="357.7145" y1="151.3212" x2="394.5245" y2="322.0812" gradientTransform="matrix(1 0 0 -1 0 275)">
			<stop  offset="0" style="stop-color:#F4DFFF;stop-opacity:0"/>
			<stop  offset="1" style="stop-color:#FFFFFF"/>
		</linearGradient>
		<path fill="url(#SVGID_6_)" d="M399.4,23.8V144c-0.8,0-1.5,0-2.2-0.1c-6.4-0.4-13.4-3.3-15.5-9.3c-0.8-2.3-0.9-5.1-2.6-6.8
			c-2.1-2.1-5.6-1.6-8.4-2.6c-6-2-7.7-9.5-8.1-15.8c-0.6-9.4-0.5-18.8,0.4-28.1c1.1-11.3,2.6-24.8-6.2-32c-2.2-1.8-4.9-3-7.3-4.6
			c-6.9-4.7-10.6-12.9-11.8-21.1c-1.1-7.8-0.2-15.8,0.8-23.7h37.2C388.7-0.1,399.4,10.6,399.4,23.8
			C399.4,23.8,399.4,23.8,399.4,23.8z"/>
		<path fill="#7D7BDE" d="M184.7,35.5h72.9l0,0v87.8l0,0h-72.9c-3.3,0-6-2.7-6-6V41.5C178.7,38.2,181.4,35.5,184.7,35.5
			C184.7,35.5,184.7,35.5,184.7,35.5z"/>
		
			<ellipse transform="matrix(0.867 -0.4983 0.4983 0.867 -37.4925 129.6622)" fill="#7D7BDE" cx="224.2" cy="135.1" rx="5.4" ry="3.3"/>
		<ellipse transform="matrix(0.866 -0.5 0.5 0.866 -34.9249 138.7212)" fill="#7D7BDE" cx="241.4" cy="134.5" rx="5.4" ry="3.3"/>
		<ellipse transform="matrix(0.866 -0.5 0.5 0.866 -42.0799 112.0183)" fill="#7D7BDE" cx="188" cy="134.5" rx="5.4" ry="3.3"/>
		<ellipse transform="matrix(0.866 -0.5 0.5 0.866 -39.6507 121.0745)" fill="#7D7BDE" cx="206.1" cy="134.5" rx="5.4" ry="3.3"/>
		<path fill="#909AEE" d="M359,189.7L359,189.7c2.3,0,4.2,1.9,4.2,4.2v44.5c0,2.3-1.9,4.2-4.2,4.2l0,0c-2.3,0-4.2-1.9-4.2-4.2v-44.5
			C354.9,191.6,356.7,189.7,359,189.7z"/>
		<path fill="#909AEE" d="M340.4,189.7L340.4,189.7c2.3,0,4.2,1.9,4.2,4.2v44.5c0,2.3-1.9,4.2-4.2,4.2l0,0c-2.3,0-4.2-1.9-4.2-4.2
			v-44.5C336.2,191.6,338.1,189.7,340.4,189.7z"/>
		<path fill="#909AEE" d="M303.5,49L303.5,49c2.3,0,4.2,1.9,4.2,4.2v27.4c0,2.3-1.9,4.2-4.2,4.2l0,0c-2.3,0-4.2-1.9-4.2-4.2V53.2
			C299.3,50.9,301.2,49,303.5,49z"/>
		<path fill="#909AEE" d="M321.8,189.7L321.8,189.7c2.3,0,4.2,1.9,4.2,4.2v44.5c0,2.3-1.9,4.2-4.2,4.2l0,0c-2.3,0-4.2-1.9-4.2-4.2
			v-44.5C317.6,191.6,319.5,189.7,321.8,189.7z"/>
		<path fill="#909AEE" d="M302.5,189.7L302.5,189.7c2.3,0,4.2,1.9,4.2,4.2v44.5c0,2.3-1.9,4.2-4.2,4.2l0,0c-2.3,0-4.2-1.9-4.2-4.2
			v-44.5C298.3,191.6,300.2,189.7,302.5,189.7z"/>
		<rect x="169.8" y="170.6" fill="#9FA9FD" width="80.4" height="13.9"/>
		<path fill="#7D7BDE" d="M245.6,177.6L245.6,177.6c0,1.9-1.5,3.4-3.4,3.4h-64.4c-1.9,0-3.4-1.5-3.4-3.4v0c0-1.9,1.5-3.4,3.4-3.4
			h64.4C244.1,174.2,245.6,175.7,245.6,177.6z"/>
		
			<linearGradient id="SVGID_7_" gradientUnits="userSpaceOnUse" x1="343.76" y1="216.09" x2="386.9" y2="216.09" gradientTransform="matrix(1 0 0 -1 0 275)">
			<stop  offset="0" style="stop-color:#B9C7FF"/>
			<stop  offset="1" style="stop-color:#E2E9FF"/>
		</linearGradient>
		<rect x="343.8" y="52" fill="url(#SVGID_7_)" width="43.1" height="13.9"/>
		<path fill="#909AEE" d="M383.2,58.9L383.2,58.9c0,1.9-1.5,3.4-3.4,3.4h-28.1c-1.9,0-3.4-1.5-3.4-3.4l0,0c0-1.9,1.5-3.4,3.4-3.4
			h28.1C381.7,55.5,383.2,57,383.2,58.9z"/>
		<rect x="380.3" y="248.6" fill="#9890F2" width="37.7" height="1"/>
		<rect x="380.3" y="258.4" fill="#9890F2" width="37.7" height="1"/>
		<rect x="380.4" y="266.9" fill="#9890F2" width="37.7" height="1"/>
		<rect x="380.3" y="238.2" fill="#9890F2" width="37.7" height="1"/>
		<rect x="380.3" y="227.8" fill="#9890F2" width="37.7" height="1"/>
		<rect x="380.3" y="217.4" fill="#9890F2" width="37.7" height="1"/>
		<rect x="380.3" y="207" fill="#9890F2" width="37.7" height="1"/>
		<rect x="380.3" y="196.6" fill="#9890F2" width="37.7" height="1"/>
		<rect x="380.3" y="186.1" fill="#9890F2" width="37.7" height="1"/>
		
			<rect x="379.9" y="174.8" transform="matrix(0.9816 -0.1912 0.1912 0.9816 -26.14 79.5469)" fill="#9890F2" width="38.6" height="1"/>
		
			<rect x="370" y="156.5" transform="matrix(0.6311 -0.7757 0.7757 0.6311 22.8794 362.1971)" fill="#9890F2" width="44.5" height="1"/>
		
			<rect x="376.3" y="164.6" transform="matrix(0.8422 -0.5392 0.5392 0.8422 -26.2948 240.4287)" fill="#9890F2" width="42.5" height="1"/>
		<path fill="#9890F2" d="M376.9,173.4l-1-0.1c2-14.6,7-33.5,19-40.5l0.5,0.9C389,137.4,380.5,147.3,376.9,173.4z"/>
		<path fill="#9890F2" d="M372.9,173.6c-6.3-13.9-3-33,7.5-43.6l0.7,0.7c-10.2,10.3-13.4,29-7.3,42.5L372.9,173.6z"/>
		<path fill="#9890F2" d="M369.6,173.6c-5.6-5.1-8.7-12.3-8.6-19.9c-0.1-9.1,3.7-17.8,10.4-23.9l0.7,0.8c-6.4,6-10.1,14.4-10,23.2
			c-0.1,7.3,2.9,14.2,8.3,19.1L369.6,173.6z"/>
		<path fill="#909AEE" d="M321.7,49L321.7,49c2.3,0,4.2,1.9,4.2,4.2v27.4c0,2.3-1.9,4.2-4.2,4.2l0,0c-2.3,0-4.2-1.9-4.2-4.2V53.2
			C317.5,50.9,319.4,49,321.7,49z"/>
		
			<linearGradient id="SVGID_8_" gradientUnits="userSpaceOnUse" x1="322.7575" y1="209.8625" x2="330.2375" y2="217.3425" gradientTransform="matrix(1 0 0 -1 8.358833e-03 274.9959)">
			<stop  offset="0" style="stop-color:#9C9AF7"/>
			<stop  offset="1" style="stop-color:#B9C7FF"/>
		</linearGradient>
		<polygon fill="url(#SVGID_8_)" points="320.1,65.6 328.9,57.5 330.7,59.4 321.9,67.5 		"/>
		
			<linearGradient id="SVGID_9_" gradientUnits="userSpaceOnUse" x1="309.93" y1="213.19" x2="318.387" y2="221.647" gradientTransform="matrix(1 0 0 -1 0 275)">
			<stop  offset="0" style="stop-color:#B9C7FF"/>
			<stop  offset="1" style="stop-color:#F4F8FF"/>
		</linearGradient>
		<circle fill="url(#SVGID_9_)" cx="317.2" cy="54.6" r="6"/>
		
			<linearGradient id="SVGID_10_" gradientUnits="userSpaceOnUse" x1="305.5613" y1="209.9387" x2="313.0413" y2="217.4187" gradientTransform="matrix(1 0 0 -1 -7.258293e-04 274.9995)">
			<stop  offset="0" style="stop-color:#9C9AF7"/>
			<stop  offset="1" style="stop-color:#B9C7FF"/>
		</linearGradient>
		<polygon fill="url(#SVGID_10_)" points="302.8,65.6 311.7,57.5 313.4,59.4 304.6,67.5 		"/>
		
			<linearGradient id="SVGID_11_" gradientUnits="userSpaceOnUse" x1="326.5" y1="212.48" x2="334.957" y2="220.937" gradientTransform="matrix(1 0 0 -1 0 275)">
			<stop  offset="0" style="stop-color:#B9C7FF"/>
			<stop  offset="1" style="stop-color:#F4F8FF"/>
		</linearGradient>
		<circle fill="url(#SVGID_11_)" cx="334.5" cy="54.6" r="6"/>
		<path fill="#9C9AF7" d="M243.9,249.3h-66.2c-4.2,0-7.6-3.4-7.6-7.6v-46.3c0-4.2,3.4-7.6,7.6-7.6h66.2c4.2,0,7.6,3.4,7.6,7.6v46.3
			C251.4,245.9,248,249.3,243.9,249.3z M177.6,188.9c-3.6,0-6.6,2.9-6.6,6.6v46.3c0,3.6,2.9,6.6,6.6,6.6h66.2c3.6,0,6.6-2.9,6.6-6.6
			v-46.3c0-3.6-2.9-6.6-6.6-6.6H177.6z"/>
		<path fill="#EDF5FF" d="M184.7,35.5h72.9l0,0v87.8l0,0h-72.9c-3.3,0-6-2.7-6-6V41.5C178.7,38.2,181.4,35.5,184.7,35.5
			C184.7,35.5,184.7,35.5,184.7,35.5z"/>
		<path fill="#EDF5FF" d="M164.2,234.6l70.5,0.2c0,0-0.8-19.1-1-30.7c-0.2-9.6,3.3-26.6,10.6-26.9l-62.4,0.4
			c-8.1-0.3-13.1,7.1-16.2,16.8S164.2,234.6,164.2,234.6z"/>
		<path fill="#E361A2" d="M243.6,65.1v24.4c0,2.6-0.9,5.2-2.5,7.2c-1.4,1.8-3.6,2.9-5.9,3h-23.6c-4.7,0-8.6-4.6-8.6-10.2V65
			c0-5.6,3.9-10.2,8.6-10.2h1.3V53c-0.1-0.8,0.5-1.4,1.2-1.5c0.8,0.1,1.3,0.7,1.2,1.5v1.8h15.1v-2.2c-0.1-0.8,0.5-1.4,1.2-1.5
			c0.8,0.1,1.3,0.7,1.3,1.5c0,0,0,0,0,0v2.2h2C239.8,54.8,243.6,59.4,243.6,65.1z"/>
		<path fill="#ADC4FF" d="M51.9,207.2c1,11.2,5.1,22,11.8,31c22.7,29.6,65.3,23.7,67.2,23.4c-4.6-18-7.1-32.5-7.1-49.1
			c-3.4,1.1-9.9,3.4-20.2-0.3c-7.3-2.6-15.3-8.9-21.8-15.8c0,0-1.3,1.9-6.9,7.2C69.1,209.2,59.5,210.2,51.9,207.2z"/>
		<path fill="#6E6CCF" d="M144,133.6c-4,13.1-8.6,25.2-14.4,34.4c-1.2,5.2-2.5,10.6-3.5,16.9c-1.5,9.1-2.2,18.3-2,27.5
			c-3.4,1.1-9.8,3.4-20.2-0.3c-7.3-2.6-15.3-8.9-21.9-15.8c0,0-1.3,1.9-6.8,7.2c-6,5.6-15.5,6.6-23.2,3.6c-2.3-8-3.7-16.3-4-24.7
			c-11.2-1.3-14.5-9.3-14-19.4c1-16.1,11.9-37.5,16.4-44.9c4.6-7.5,9.6-16.3,30.3-18.7c5.3-0.6,10.6-0.7,15.9-0.6
			c26.5,0.7,48.2,3.8,49.3,22l0,0C146,125.3,145.4,129.6,144,133.6z"/>
		
			<linearGradient id="SVGID_12_" gradientUnits="userSpaceOnUse" x1="-6249.3115" y1="-85.7609" x2="-6253.1812" y2="-68.301" gradientTransform="matrix(-1 9.000000e-02 -9.000000e-02 -1 -6162.1499 594.64)">
			<stop  offset="0" style="stop-color:#ABBFFF"/>
			<stop  offset="1" style="stop-color:#7A84E6"/>
		</linearGradient>
		<path fill="url(#SVGID_12_)" d="M84.8,99.5c-3.9,12.6,3.4,19.2,4.8,19.2c4.3-0.1,17.3-10.1,20.3-17.2L84.8,99.5z"/>
		
			<linearGradient id="SVGID_13_" gradientUnits="userSpaceOnUse" x1="-6309.6982" y1="-131.1829" x2="-6221.3481" y2="-131.1829" gradientTransform="matrix(-1 9.000000e-02 -9.000000e-02 -1 -6162.1499 594.64)">
			<stop  offset="0" style="stop-color:#95D3FF"/>
			<stop  offset="1" style="stop-color:#78B3FF"/>
		</linearGradient>
		<path fill="url(#SVGID_13_)" d="M91.5,124c-1.3,9.3-2.1,15.8-2.7,26.6c-0.2,8,0,15.9,0.7,23.9c0.4,5.5,1.2,11.1,0.5,16.6
			c-0.8,6.1-2.8,12-5.9,17.4c-6-2-11.5-9.3-13.4-15.9s-1.7-13.6-1-20.2c1.8-17.7,6.5-35.1,13.9-51.3C86.2,122,88.8,123,91.5,124z"/>
		
			<linearGradient id="SVGID_14_" gradientUnits="userSpaceOnUse" x1="-6293.4883" y1="-87.1524" x2="-6247.6182" y2="-87.1524" gradientTransform="matrix(-1 9.000000e-02 -9.000000e-02 -1 -6162.1499 594.64)">
			<stop  offset="0" style="stop-color:#95D3FF"/>
			<stop  offset="1" style="stop-color:#78B3FF"/>
		</linearGradient>
		<path fill="url(#SVGID_14_)" d="M84.2,114.6c-1.5-0.2-2.3,4.3-2.6,6.8c0,0.3,0,0.6,0,0.9c0.1,0.3,0.2,0.5,0.4,0.7
			c0.7,0.6,1.6,1,2.6,1.2c2.1,0.5,4,0.9,6.4,1.2c0.5,0.2,1.1,0.1,1.6-0.2c0.4-0.4,0.7-0.9,0.8-1.4c0.6-1.7,1-3.5,1-5.3
			c0-0.5,0-1.1-0.2-1.6c-0.3-0.5-0.8-0.9-1.4-0.9C90.7,115.5,86.4,114.8,84.2,114.6z"/>
		<path fill="#6E6CCF" d="M48,182.5c1.3,0.2,2.6,0.2,4,0.2c35-0.6,48.7-13.7,47.6-18.6c-1.2-5.1-14.7-8-47.6-7.8"/>
		
			<linearGradient id="SVGID_15_" gradientUnits="userSpaceOnUse" x1="-6209.9482" y1="-117.9649" x2="-6214.0884" y2="-0.6749" gradientTransform="matrix(-1 9.000000e-02 -9.000000e-02 -1 -6162.1499 594.64)">
			<stop  offset="0" style="stop-color:#BAA7FF;stop-opacity:0"/>
			<stop  offset="1" style="stop-color:#A6A7FF"/>
		</linearGradient>
		<path fill="url(#SVGID_15_)" d="M38.9,178.8c-1.8-9.1,2.3-22,11.7-20.3c4.4,0.8,8.9,0,12.8-2.2l-14.5-1.6c-4.1-0.4-3.9-4.2-1-7.2
			c1.1-1.1,2.5-1.9,3.3-3.2c0.8-1.3,1-2.9,0.5-4.4c-0.6-1.6-1.1-2.1-1.8-3.7c-0.8-1.8-1-3.9-0.6-5.9c1.1-4.1,5.8-3.6,7.9-8
			c1.4-2.9-0.4-3.7,0.7-6.8c1.6-4.6,6.5-5.3,15.1-10.6c2.7-1.6,5.2-3.5,7.6-5.4C60,101.9,55,110.7,50.4,118.2
			C45.9,125.6,24.4,165.6,38.9,178.8z"/>
		<path fill="#ADC4FF" d="M144.9,79.5c-1.9,3.5-4.3,6.7-7.1,9.5c-5.2,10-14.3,22.1-55.3,19.1c-7.6-0.6-13.1-1.8-17-3.5
			c-17.3-7.4-4.2-23.2-5.2-26.8c-1.1-4.3-15.6-32.7,13.6-51.8c8-5.2,17.4-8,27-7.8c1.2,0,2.3,0.1,3.5,0.2
			c21,1.7,40.3,16.2,44.1,35.1C150.4,62.3,149.1,71.5,144.9,79.5z"/>
		<path fill="#ADC4FF" d="M137.5,85.5c0,0,5-9.2,12.9-5s-1.7,27.3-18.8,17.4C129.1,96.4,137.5,85.5,137.5,85.5z"/>
		
			<linearGradient id="SVGID_16_" gradientUnits="userSpaceOnUse" x1="114.4425" y1="201.4348" x2="146.0425" y2="276.7948" gradientTransform="matrix(1 0 0 -1 0 275)">
			<stop  offset="0" style="stop-color:#E5D0F5;stop-opacity:0"/>
			<stop  offset="1" style="stop-color:#FBFBFF"/>
		</linearGradient>
		<path fill="url(#SVGID_16_)" d="M144.9,79.5c-3.4-3.8-3.5-8.4-3.4-13.6s0.9-10.4-0.4-15.5c-1.5-5.8-5.5-10.6-10.4-14.1
			s-10.4-5.7-16-7.7c-2.8-1-5.8-2.1-7.9-4.2c-1.7-1.6-2.5-3.8-2.4-6.1c21,1.7,40.3,16.2,44.1,35.1C150.4,62.3,149.1,71.5,144.9,79.5
			z"/>
		<path fill="#1B3790" d="M65,88.1c-1.3,0-2.7-0.3-3.9-0.9c-5.3-2.6-5.5-9.9-4.9-13.4c0.3-1.9,1.9-8.3,6.9-9.4l0,0
			c3.7-0.8,6.8,1.7,7.6,2.5c4.1,3.8,3.3,9.6,3.1,11.5c-0.3,2.4-0.8,6-3.9,8.2C68.5,87.6,66.8,88.2,65,88.1z M63.4,65.3l0.2,0.8
			c-4.2,0.9-5.5,6.9-5.7,8.1c-0.7,3.6-0.1,9.6,4,11.7c2.3,1.1,5.1,0.9,7.2-0.5c2.6-1.7,3-4.8,3.2-7.1c0.2-1.7,0.9-6.9-2.6-10.1
			c-0.5-0.5-3.2-2.8-6.2-2.1L63.4,65.3z"/>
		<path fill="#1B3790" d="M91.9,91.9c-2.6,0-5.2-0.8-7.2-2.4c-4.9-3.9-4.2-10.4-3.9-12.3c0.4-3,1.9-5.8,4.3-7.7
			c2.3-1.7,5.1-2.6,8-2.3l0,0c3.5,0.4,6.7,2.2,8.7,5.1c3.4,4.9,1.7,10.4,1.3,11.5C101.6,88.7,97,92,91.9,91.9z M91.9,68.7
			c-2.2,0-4.3,0.7-6,2c-2,1.7-3.3,4.1-3.6,6.7c-0.4,2.2-0.8,7.5,3.3,10.8s9.2,1.7,9.2,1.7c3.2-1.1,5.6-3.6,6.7-6.7
			c0.3-0.9,1.8-5.7-1.2-10c-1.8-2.5-4.5-4.1-7.6-4.4l0,0C92.5,68.7,92.2,68.7,91.9,68.7L91.9,68.7z"/>
		<path fill="#1B3790" d="M78.8,96.6c-1.6,0-3.1-0.2-4.6-0.5l0.3-1.6c1.7,0.3,3.5,0.5,5.3,0.4c1.3,0,2.6-0.3,3.8-0.7l0.6,1.5
			c-1.4,0.5-2.8,0.7-4.3,0.8L78.8,96.6z"/>
		<path fill="#1B3790" d="M113.1,80.5c-3.4,0-6.7,0-10.1-0.1v-1.6c12.1,0.3,24.3,0.1,36.4-0.8l0.1,1.6
			C130.8,80.2,121.9,80.5,113.1,80.5z"/>
		<path fill="#1B3790" d="M81.3,78.2c-2.4-1.2-5.2-1.5-7.8-0.7l-0.4-1.5c3-0.9,6.2-0.6,9,0.8L81.3,78.2z"/>
		<path fill="#ADC4FF" d="M60.9,159.7c0.1,0.8,0.4,1.5,0.8,2.1c2.3,4.3,9.6,12.2,19.9,17.7c-1.2-4.9-1.2-10,0-14.9
			c0.3-1.3,0.8-2.6,1.4-3.8c1-2.2,2.5-4.1,4.4-5.6C68,151.7,60.8,157.9,60.9,159.7z"/>
		<path fill="#6E6CCF" d="M129.5,168.1c-5,7.9-10.8,13.6-17.9,16.1c-3.6,1.3-7.4,1.7-11.2,1.3c-6.6-0.7-13-2.7-18.8-5.9
			c-1.2-4.9-1.2-10,0-14.9c0.8-3.7,2.9-7,5.8-9.4c4.9,0.9,7.1,1.4,14.1,2.3l11.8-17.6l13.5,23.4l0,0L129.5,168.1z"/>
		
			<linearGradient id="SVGID_17_" gradientUnits="userSpaceOnUse" x1="-6269.5781" y1="-123.5695" x2="-6212.2681" y2="-123.5695" gradientTransform="matrix(-1 9.000000e-02 -9.000000e-02 -1 -6162.1499 594.64)">
			<stop  offset="0" style="stop-color:#B5E0FF;stop-opacity:0"/>
			<stop  offset="1" style="stop-color:#F2FDFF"/>
		</linearGradient>
		<path fill="url(#SVGID_17_)" d="M60.9,159.7c0.1,0.8,0.4,1.5,0.8,2.1c1.3,0.1,2.6,0.1,3.9,0.1c3.5-0.2,7-1,10.6-1.3
			c2.3-0.3,4.6-0.2,6.8,0.3c1-2.2,2.5-4.1,4.4-5.6C68,151.7,60.8,157.9,60.9,159.7z"/>
		<polygon fill="#FFFFFF" points="424.4,53.9 400.6,44.3 385.7,66.4 394.5,42.1 373.2,27.7 397.9,36.6 411.9,15.2 403.1,38.7 		"/>
		<polygon fill="#FFFFFF" points="156.6,230.2 139.8,223.5 129.4,239 135.5,221.9 120.6,211.8 137.9,218 147.8,203 141.6,219.5 		
			"/>
		
			<linearGradient id="SVGID_18_" gradientUnits="userSpaceOnUse" x1="129.1328" y1="91.4204" x2="126.9418" y2="153.3099" gradientTransform="matrix(1 0 0 -1 0 275)">
			<stop  offset="0" style="stop-color:#BAA7FF;stop-opacity:0"/>
			<stop  offset="1" style="stop-color:#A6A7FF"/>
		</linearGradient>
		<path fill="url(#SVGID_18_)" d="M144,133.6c-4,13.1-8.6,25.2-14.4,34.4c-5,7.9-10.8,13.6-17.9,16.1c-0.6-0.7-1.1-1.5-1.3-2.3
			c-0.8-2.9,1.2-5.9,3.7-7.6s5.4-2.7,7.8-4.5c2.1-1.7,3.8-3.9,5-6.4l0,0c1.5-2.9,2.6-6.1,4-9c2.9-6.4,7.2-12.1,10.5-18.3
			c2.5-4.6,4.4-9.8,4.6-15C146,125.3,145.4,129.6,144,133.6z"/>
		<path fill="#6E6CCF" d="M99.4,23c-2.2-1-4-3-4.7-5.3c-1.1-4.2,2.2-7.7,2.9-8.4c4.3-4.5,12.4-5.3,18.3-2c3.7,2.2,6.4,5.7,7.6,9.8
			C115.1,16,106.5,18.2,99.4,23L99.4,23z"/>
		<ellipse fill="#CFD1FF" cx="213.3" cy="109.3" rx="1.8" ry="2"/>
		<ellipse fill="#CFD1FF" cx="222.4" cy="109.3" rx="1.8" ry="2"/>
		<ellipse fill="#CFD1FF" cx="231.5" cy="109.3" rx="1.8" ry="2"/>
		<g>
			<path fill="#EDF5FF" d="M228.4,86.2c-0.9,1-2.1,1.8-3.7,2.2v3.2c0,0.4-0.1,0.7-0.4,0.9c-0.2,0.2-0.5,0.4-0.9,0.4h-1.4
				c-0.4,0-0.7-0.1-0.9-0.4c-0.2-0.2-0.4-0.5-0.4-0.9v-3c-1.8-0.2-3.2-0.7-4.3-1.6c-1.1-0.8-1.6-1.9-1.6-3.2c0-0.8,0.2-1.5,0.7-1.9
				c0.5-0.5,1.1-0.7,1.8-0.7c0.7,0,1.3,0.2,1.8,0.6c0.5,0.4-0.4,1.7,0.4,2.8c0.7,0.5,1.6,0.7,2.6,0.7c1.1,0,2-0.2,2.6-0.6
				c0.6-0.4,0.9-1,0.9-1.8c0-0.5-0.1-0.8-0.3-1.1c-0.2-0.3-0.5-0.5-1-0.8s-1.2-0.5-2.2-0.8c-1.7-0.5-3.1-1.1-4.1-1.7
				c-1-0.6-1.7-1.3-2.2-2c-0.5-0.8-0.7-1.7-0.7-2.8c0-1.5,0.5-2.8,1.5-3.8c1-1,2.4-1.7,4.1-2.1v-3.1c0-0.4,0.1-0.7,0.4-0.9
				c0.2-0.2,0.5-0.4,0.9-0.4h1.4c0.4,0,0.7,0.1,0.9,0.4c0.2,0.2,0.4,0.5,0.4,0.9v3.1c1.4,0.3,2.6,0.8,3.4,1.7c0.9,0.8,1.3,1.8,1.3,3
				c0,0.8-0.2,1.5-0.7,1.9c-0.5,0.5-1.1,0.7-1.8,0.7c-0.7,0-1.3-0.2-1.8-0.6c-0.5-0.4,0.3-1.7-0.4-2.8c-0.4-0.4-1.2-0.6-2.2-0.6
				c-1,0-1.7,0.2-2.3,0.6s-0.9,1-0.9,1.7c0,0.5,0.1,0.9,0.3,1.2c0.2,0.3,0.6,0.6,1.1,0.8c0.5,0.3,1.3,0.5,2.3,0.9
				c1.8,0.5,3.1,1.1,4.1,1.6c0.9,0.5,1.6,1.2,2,1.9c0.4,0.7,0.6,1.7,0.6,2.8C229.8,83.9,229.3,85.1,228.4,86.2z"/>
		</g>
	</g>
</g>
</svg>
