<svg xmlns="http://www.w3.org/2000/svg" xmlns:xlink="http://www.w3.org/1999/xlink" viewBox="0 0 485.09 376.56"><defs><style>.cls-1{fill:url(#linear-gradient);}.cls-2{fill:#d5e1ff;}.cls-3{fill:#c1d6ff;}.cls-4{fill:url(#radial-gradient);}.cls-5{fill:#adc4ff;}.cls-6{fill:#6e6ccf;}.cls-7{fill:url(#linear-gradient-2);}.cls-8{fill:#1b3790;}.cls-9{fill:#f0f1ff;}.cls-10{fill:url(#linear-gradient-3);}.cls-11{fill:url(#linear-gradient-4);}.cls-12{fill:url(#linear-gradient-5);}.cls-13{fill:#1ea7eb;}.cls-14{fill:#d777d7;}.cls-15{fill:#6edccf;}.cls-16{fill:#8f6edc;}.cls-17{fill:#ffde2e;}.cls-18{fill:#fff;}.cls-19{fill:url(#linear-gradient-6);}.cls-20{fill:url(#linear-gradient-7);}.cls-21{fill:url(#linear-gradient-8);}.cls-22{fill:url(#linear-gradient-9);}</style><linearGradient id="linear-gradient" x1="113.5" y1="379.98" x2="472.92" y2="131.16" gradientUnits="userSpaceOnUse"><stop offset="0" stop-color="#e7efff"/><stop offset="1" stop-color="#e5ebff"/></linearGradient><radialGradient id="radial-gradient" cx="417.11" cy="222.85" r="134.39" gradientUnits="userSpaceOnUse"><stop offset="0" stop-color="#e6fff3"/><stop offset="1" stop-color="#effff8" stop-opacity="0"/></radialGradient><linearGradient id="linear-gradient-2" x1="255.15" y1="179.11" x2="249.37" y2="153.04" gradientUnits="userSpaceOnUse"><stop offset="0" stop-color="#abbfff"/><stop offset="1" stop-color="#7a84e6"/></linearGradient><linearGradient id="linear-gradient-3" x1="313.28" y1="240.96" x2="306.06" y2="36.52" gradientUnits="userSpaceOnUse"><stop offset="0" stop-color="#baa7ff" stop-opacity="0"/><stop offset="1" stop-color="#a6a7ff"/></linearGradient><linearGradient id="linear-gradient-4" x1="247.82" y1="109.16" x2="348.28" y2="27.15" gradientUnits="userSpaceOnUse"><stop offset="0" stop-color="#e5d0f5" stop-opacity="0"/><stop offset="1" stop-color="#fbfbff"/></linearGradient><linearGradient id="linear-gradient-5" x1="269.62" y1="228.49" x2="322.79" y2="228.49" gradientUnits="userSpaceOnUse"><stop offset="0" stop-color="#b5e0ff" stop-opacity="0"/><stop offset="1" stop-color="#f2fdff"/></linearGradient><linearGradient id="linear-gradient-6" x1="357.83" y1="234.04" x2="403.38" y2="234.04" gradientUnits="userSpaceOnUse"><stop offset="0" stop-color="#768dff"/><stop offset="1" stop-color="#72d9ed"/></linearGradient><linearGradient id="linear-gradient-7" x1="111.03" y1="215.78" x2="140.49" y2="191.73" gradientUnits="userSpaceOnUse"><stop offset="0" stop-color="#768dff"/><stop offset="1" stop-color="#7bc6ff"/></linearGradient><linearGradient id="linear-gradient-8" x1="408.09" y1="190.43" x2="416.38" y2="183.66" xlink:href="#linear-gradient-6"/><linearGradient id="linear-gradient-9" x1="141.08" y1="274.71" x2="169.25" y2="251.71" gradientUnits="userSpaceOnUse"><stop offset="0" stop-color="#76bfff"/><stop offset="1" stop-color="#72d9ed"/></linearGradient></defs><title>Employee created</title><g id="Layer_2" data-name="Layer 2"><g id="Layer_17" data-name="Layer 17"><path class="cls-1" d="M474.88,255.06H393.07V110a15.05,15.05,0,0,0-15.05-15H316.1a15.05,15.05,0,0,0-15.05,15V223.31H216.21V150.72h-4.9V133.11H105.09v17.61H97.58A10.48,10.48,0,0,0,87.1,161.21v40.35a15.68,15.68,0,0,0-10.82-4.32H15.73A15.73,15.73,0,0,0,0,213V376.56H485.09V265.27A10.21,10.21,0,0,0,474.88,255.06Z"/><rect class="cls-2" x="105.15" y="133.11" width="8.46" height="17.61"/><rect class="cls-3" x="121.62" y="175.61" width="79.53" height="6.39"/><rect class="cls-3" x="121.62" y="197.24" width="79.53" height="6.39"/><rect class="cls-3" x="29.57" y="218.86" width="43.05" height="6.39"/><rect class="cls-3" x="29.57" y="240.48" width="43.05" height="6.39"/><rect class="cls-3" x="29.57" y="262.1" width="43.05" height="6.39"/><rect class="cls-3" x="29.57" y="283.72" width="43.05" height="6.39"/><rect class="cls-3" x="29.57" y="305.35" width="43.05" height="6.39"/><rect class="cls-3" x="29.57" y="326.97" width="43.05" height="6.39"/><rect class="cls-3" x="121.62" y="218.86" width="79.53" height="6.39"/><rect class="cls-3" x="331.56" y="197.24" width="38.18" height="6.39"/><rect class="cls-3" x="331.56" y="218.86" width="38.18" height="6.39"/><rect class="cls-3" x="331.56" y="152.66" width="38.18" height="6.39"/><rect class="cls-3" x="331.56" y="174.28" width="38.18" height="6.39"/><rect class="cls-3" x="331.56" y="129.71" width="38.18" height="6.39"/><rect class="cls-3" x="331.56" y="240.48" width="38.18" height="6.39"/><rect class="cls-3" x="331.56" y="262.1" width="38.18" height="6.39"/><rect class="cls-3" x="331.56" y="283.72" width="38.18" height="6.39"/><rect class="cls-3" x="451.61" y="283.72" width="25.31" height="6.39"/><rect class="cls-3" x="417.92" y="283.72" width="25.31" height="6.39"/><rect class="cls-3" x="451.61" y="299.94" width="25.31" height="6.39"/><rect class="cls-3" x="417.92" y="299.94" width="25.31" height="6.39"/><rect class="cls-3" x="451.61" y="316.26" width="25.31" height="6.39"/><rect class="cls-3" x="417.92" y="316.26" width="25.31" height="6.39"/><rect class="cls-3" x="451.61" y="332.58" width="25.31" height="6.39"/><rect class="cls-3" x="417.92" y="332.58" width="25.31" height="6.39"/><rect class="cls-3" x="121.62" y="240.48" width="79.53" height="6.39"/><rect class="cls-3" x="121.62" y="262.1" width="79.53" height="6.39"/><rect class="cls-3" x="121.62" y="283.72" width="79.53" height="6.39"/><rect class="cls-2" x="393.07" y="255.06" width="13.93" height="121.5"/><path class="cls-2" d="M315,94.91h0a0,0,0,0,1,0,0V376.56a0,0,0,0,1,0,0H301.05a0,0,0,0,1,0,0V108.85A13.93,13.93,0,0,1,315,94.91Z"/><rect class="cls-2" x="87.1" y="150.72" width="13.93" height="225.84"/><path class="cls-2" d="M13.93,197.24h0a0,0,0,0,1,0,0V376.56a0,0,0,0,1,0,0H0a0,0,0,0,1,0,0V211.17A13.93,13.93,0,0,1,13.93,197.24Z"/><path class="cls-4" d="M474.88,255.06H393.07V110a15.05,15.05,0,0,0-15.05-15H316.1a15.05,15.05,0,0,0-15.05,15V223.31H216.21v-62.1a10.48,10.48,0,0,0-10.48-10.49h-12V133.11H105.09v17.61H97.58A10.48,10.48,0,0,0,87.1,161.21v40.35a15.68,15.68,0,0,0-10.82-4.32H15.73A15.73,15.73,0,0,0,0,213V376.56H485.09V265.27A10.21,10.21,0,0,0,474.88,255.06Z"/><path class="cls-5" d="M329.35,298.81c-2.89,13.83-8.3,26.74-17.38,37.2C259.08,396.85,185.34,370,185.34,370c16.53-5.75,30.19-26.44,33.71-53.57a52.56,52.56,0,0,0,33.8-3.1c10.49-4.8,21.61-15.32,30.39-26.47,0,0,2.19,2.74,11.17,9.77C304.05,304.14,318.4,304.37,329.35,298.81Z"/><path class="cls-6" d="M332,261.58a151.43,151.43,0,0,1-2.61,37.23c-11,5.56-25.3,5.32-34.94-2.23-9-7-11.17-9.77-11.17-9.77-8.78,11.15-19.9,21.66-30.39,26.46a52.52,52.52,0,0,1-33.8,3.11,109.71,109.71,0,0,0,.81-17.94c-.63-17.21-6-31.1-11.21-47.47-9.89-12.94-18.32-30.34-26.09-49.31-17.55-42.82,18.93-52.4,66-57.91a168.17,168.17,0,0,1,23.7-1.28c31,.79,39.71,13.14,47.55,23.74,7.67,10.37,26.75,40.73,30.28,64.61C352.28,245.74,348.43,258.14,332,261.58Z"/><path class="cls-7" d="M266.08,143c7.44,18.19-2.51,29-4.6,29.13-6.47.38-27.05-12.69-32.48-22.93Z"/><path class="cls-8" d="M283.28,273.37c-.24-.11-.25-.19-.35-.8-1.25-8.09-6.16-36.4-16.69-61.17-11.91-28.7-35-54.28-35.2-54.47l.33-.36v0l.13-.49c.61.17,23.79,26.32,35.68,54.95,10.56,24.87,15.49,53.29,16.75,61.4,0,.23.06.37.07.41l-.49.1Z"/><path class="cls-8" d="M295.82,273.61c-.16-.17-.16-.17,0-1.24,1.37-12.51,3.14-37.26-.56-62.52-4.34-29-10-46.36-11.14-49.55a.58.58,0,0,1,0-.57l.84.54-.42-.28.48-.14,0,.13c1.11,3.19,6.84,20.63,11.19,49.72,3.71,25.37,1.94,50.23.56,62.78,0,.45-.08.72-.08.8l-.48,0Z"/><path class="cls-6" d="M332,261.58a43.06,43.06,0,0,1-5.85.8c-52.32,3.83-74.34-13.85-73.32-21.28,1.05-7.72,20.77-13.82,69.81-18"/><path class="cls-9" d="M301.1,273.27q-12.12-.63-24.24-.86.45,18.09,1.77,36.19,11.61-.35,23.23-.6,0-17.5-.07-35"/><path class="cls-10" d="M345,254.88c1.49-13.82-6.34-32.45-20.12-28.58a28.62,28.62,0,0,1-19.27-1.56l21.32-4.27c6.05-1.21,5.27-6.84.59-10.86-1.77-1.52-4-2.56-5.42-4.4a7.53,7.53,0,0,1-1.33-6.5c.66-2.47,1.33-3.23,2.14-5.7a14.5,14.5,0,0,0,.09-8.81c-2.13-5.88-9.12-4.6-12.83-10.83-2.48-4.16.11-5.61-1.9-10-3-6.6-10.45-7.07-23.89-13.84a113.17,113.17,0,0,1-12.09-7c31,.79,39.71,13.14,47.55,23.74C327.46,176.58,364.82,233.16,345,254.88Z"/><path class="cls-5" d="M291.43,158.58c-6.35,2-15.05,3.07-26.87,2.77-63.94-1.63-76.11-21.89-82.59-38.11a59.68,59.68,0,0,1-11.11-56.65c9.33-30.27,44.49-50.29,79.19-47.19a74.56,74.56,0,0,1,40.56,16.28c42.15,34.05,15.4,75.8,13,82.3C301.59,123.26,319.4,149.82,291.43,158.58Z"/><path class="cls-5" d="M183,117.8s-6.27-15.1-19.28-9.8-1.54,42.47,26.45,29.8C194.24,136,183,117.8,183,117.8Z"/><path class="cls-11" d="M291.43,158.58c1.57-3.91,3.87-7.77,5.31-11.72a30,30,0,0,0,.24-19.64c-1.62-4.83-4.51-9.32-5.1-14.39-.7-5.87,1.76-11.58,3.25-17.3,5.56-21.32-3.5-45.66-21.66-58.13C266,32.25,257.36,29.09,248.83,26l1.22-6.58a74.56,74.56,0,0,1,40.56,16.28c42.15,34.05,15.4,75.8,13,82.3C301.59,123.26,319.4,149.82,291.43,158.58Z"/><path class="cls-8" d="M296.17,132.9a13.66,13.66,0,0,1-8.68-3c-4.42-3.72-4.58-9.32-4.69-13-.08-3-.34-11.92,6.42-17,1.43-1.07,6.52-4.43,11.92-2.67h0c7.43,2.44,8.79,12.34,9,15.31.44,5.41-1,16.48-9.41,19.62A13.06,13.06,0,0,1,296.17,132.9Zm1.75-34.44a13.71,13.71,0,0,0-7.62,2.81c-6,4.52-5.78,12.79-5.7,15.51.1,3.59.25,8.5,4,11.7a11.89,11.89,0,0,0,11.48,1.93c6.89-2.57,8.71-12,8.25-17.79-.16-1.92-1.26-11.6-7.8-13.74h0A8.38,8.38,0,0,0,297.92,98.46Z"/><path class="cls-8" d="M254.62,134.59a19.86,19.86,0,0,1-7.15-1.31c-7.41-3.12-9.88-10.09-10.6-12.94-.42-1.65-2.21-10.27,3.79-17.25a19,19,0,0,1,13.84-6.43h.2a17.46,17.46,0,0,1,11.86,4.68,18.09,18.09,0,0,1,5.26,12.4c.19,2.93.2,12.89-7.82,18.13A16.87,16.87,0,0,1,254.62,134.59Zm-.12-36.13A17.12,17.12,0,0,0,242,104.27c-5.42,6.3-3.8,14.13-3.42,15.63.66,2.59,2.89,8.92,9.55,11.72.32.14,8,3.26,14.86-1.26s7.23-13.06,7-16.5c-.13-2-.47-7.17-4.7-11.22a15.7,15.7,0,0,0-10.64-4.18Z"/><path class="cls-8" d="M276.22,144.62a15.56,15.56,0,0,1-12-5.54l1.37-1.16a13.87,13.87,0,0,0,13.83,4.53l.42,1.75A16.24,16.24,0,0,1,276.22,144.62Z"/><path class="cls-8" d="M237.13,114.93c-18.84-1.4-37.83-3.71-56.44-6.87l.3-1.78c18.55,3.15,37.49,5.46,56.27,6.85Z"/><path class="cls-8" d="M283.36,115a17.22,17.22,0,0,0-12.44-.07l-.65-1.68a19,19,0,0,1,13.76.08Z"/><path class="cls-5" d="M309.62,229.39a9,9,0,0,1-.91,3.28c-2.89,6.71-12.63,19.45-27.22,29a48.26,48.26,0,0,0-2-22.16,30.55,30.55,0,0,0-2.58-5.53,23.89,23.89,0,0,0-7.32-7.72C298,218.42,309.62,226.59,309.62,229.39Z"/><path class="cls-6" d="M281.49,261.71A74.81,74.81,0,0,1,254.36,273c-18.58,3.51-33.29-5.73-45.71-22L229,207l19.9,24.71c10.28-2.35,13.55-3.36,20.71-5.36a25.47,25.47,0,0,1,9.91,13.25A48.27,48.27,0,0,1,281.49,261.71Z"/><path class="cls-12" d="M309.62,229.39a9,9,0,0,1-.91,3.28,47.72,47.72,0,0,1-5.74.61c-5.29.22-10.58-.54-15.89-.58A32.94,32.94,0,0,0,276.94,234a23.89,23.89,0,0,0-7.32-7.72C298,218.42,309.62,226.59,309.62,229.39Z"/><circle class="cls-13" cx="421.41" cy="212.11" r="5.15"/><circle class="cls-14" cx="131.68" cy="223.07" r="7.82"/><circle class="cls-15" cx="144.02" cy="296.57" r="6.68"/><rect class="cls-15" x="368.72" y="171.25" width="12.2" height="12.2" transform="translate(-39.59 191.8) rotate(-27.32)"/><rect class="cls-16" x="117.74" y="257.77" width="7.87" height="7.87" transform="translate(171.12 -22.64) rotate(34.8)"/><polygon class="cls-17" points="343.04 148.65 346.65 151.96 351.42 150.86 349.39 155.32 351.9 159.52 347.04 158.96 343.82 162.65 342.85 157.85 338.35 155.93 342.61 153.52 343.04 148.65"/><polygon class="cls-18" points="204.76 188.81 182.46 179.91 168.61 200.51 176.82 177.84 156.91 164.36 179.93 172.66 193.06 152.66 184.88 174.62 204.76 188.81"/><polygon class="cls-18" points="358.15 255.72 347.87 251.61 341.48 261.11 345.27 250.66 336.08 244.44 346.7 248.27 352.76 239.04 348.98 249.17 358.15 255.72"/><path class="cls-19" d="M356.9,212.46c3.2,3.65,7.59,4.4,12.19,5,3.58.49,8.24,1.12,10.34,4.54,1.62,2.65.76,6,1.93,8.83,1.76,4.21,6.45,5.63,10.23,7.45a16.64,16.64,0,0,1,9.5,18c-.24,1.51,2.73,1.18,2.94-.19a18.27,18.27,0,0,0-4.79-15.8c-3.89-4-10.62-4.47-14-8.76-3.62-4.56-.62-10.37-6.39-13.84-6-3.57-14.43-1.05-19.28-6.6-.91-1-3.65.16-2.65,1.31Z"/><path class="cls-20" d="M152.92,205.79C140.86,188,114.28,189.64,98.5,201c-1.59,1.15.86,1.7,1.84,1,14.79-10.68,38.75-11.53,49.9,4.95.59.87,3.4-.12,2.68-1.18Z"/><path class="cls-21" d="M400.54,180.21c9-4.43,19.79,8.38,19.9,16.46,0,.36,2.91,0,2.9-.77-.15-11.44-13.92-21.14-24.43-16-1.7.84,1,.57,1.63.26Z"/><path class="cls-22" d="M170.38,252.1c-14.58.63-26.62,11-27.81,25.82-.08,1.08,2.82.51,2.89-.4,1-12.85,10.53-23.31,23.77-23.88,1,0,3.09-1.62,1.15-1.54Z"/><path class="cls-6" d="M238.05,1.77c1.46-.54,12.68-4.67,20.74,2,5.37,4.41,6.15,11,6.43,13.28,1.38,11.34-6.26,19.81-7.67,21.31A11.71,11.71,0,0,0,252,31.83c-2.91-1.52-6.32-1.73-9.61-1.75s-6.64.1-9.79-.84a11.76,11.76,0,0,1-6.93-6.38,9.52,9.52,0,0,1-.53-1.82c-.66.14-1.54.35-2.41.56a22.53,22.53,0,0,1,1.94-7.7C228.49,5.48,236.46,2.35,238.05,1.77Z"/></g></g></svg>