<svg xmlns="http://www.w3.org/2000/svg" xmlns:xlink="http://www.w3.org/1999/xlink" viewBox="0 0 339.41 506.17"><defs><style>.cls-1{fill:url(#radial-gradient);}.cls-2{fill:#6e6ccf;}.cls-3{fill:url(#linear-gradient);}.cls-4{fill:#adc4ff;}.cls-5{fill:url(#linear-gradient-2);}.cls-6{fill:url(#linear-gradient-3);}.cls-7{fill:#1b3790;}.cls-8{fill:url(#linear-gradient-4);}.cls-9{fill:#322e4b;}.cls-10{fill:url(#linear-gradient-5);}.cls-11{fill:url(#linear-gradient-6);}.cls-12{fill:#fcfeff;}.cls-13{fill:url(#linear-gradient-7);}.cls-14{fill:#6687ff;}.cls-15{fill:#a1d4ff;}.cls-16{fill:#92d2ff;}.cls-17{fill:#909aee;}.cls-18{fill:url(#linear-gradient-8);}.cls-19{fill:url(#linear-gradient-9);}.cls-20{fill:url(#linear-gradient-10);}.cls-21{fill:url(#linear-gradient-11);}</style><radialGradient id="radial-gradient" cx="184.72" cy="417.07" r="238.39" gradientUnits="userSpaceOnUse"><stop offset="0" stop-color="#e3f6fc"/><stop offset="1" stop-color="#e5f0fc"/></radialGradient><linearGradient id="linear-gradient" x1="209.83" y1="185.53" x2="218.53" y2="105.91" gradientUnits="userSpaceOnUse"><stop offset="0" stop-color="#baa7ff" stop-opacity="0"/><stop offset="1" stop-color="#a6a7ff"/></linearGradient><linearGradient id="linear-gradient-2" x1="176.93" y1="143.7" x2="176.93" y2="127.9" gradientUnits="userSpaceOnUse"><stop offset="0" stop-color="#abbfff"/><stop offset="1" stop-color="#7a84e6"/></linearGradient><linearGradient id="linear-gradient-3" x1="198.87" y1="87.25" x2="212.82" y2="-10.06" gradientUnits="userSpaceOnUse"><stop offset="0" stop-color="#e5d0f5" stop-opacity="0"/><stop offset="1" stop-color="#fbfbff"/></linearGradient><linearGradient id="linear-gradient-4" x1="154.3" y1="132.76" x2="175.82" y2="142.9" gradientUnits="userSpaceOnUse"><stop offset="0" stop-color="#4866cf"/><stop offset="1" stop-color="#706ed6"/></linearGradient><linearGradient id="linear-gradient-5" x1="161.19" y1="198.73" x2="212.22" y2="198.73" gradientUnits="userSpaceOnUse"><stop offset="0" stop-color="#95d3ff"/><stop offset="1" stop-color="#78b3ff"/></linearGradient><linearGradient id="linear-gradient-6" x1="134.31" y1="143.79" x2="200.66" y2="143.79" xlink:href="#linear-gradient-5"/><linearGradient id="linear-gradient-7" x1="174.27" y1="417.39" x2="239.71" y2="159.53" gradientUnits="userSpaceOnUse"><stop offset="0" stop-color="#addcff"/><stop offset="1" stop-color="#7a98ff"/></linearGradient><linearGradient id="linear-gradient-8" x1="39.63" y1="237.21" x2="74.25" y2="237.21" gradientUnits="userSpaceOnUse"><stop offset="0" stop-color="#aab8ff"/><stop offset="1" stop-color="#d3dafe"/></linearGradient><linearGradient id="linear-gradient-9" x1="176.96" y1="448.98" x2="313.34" y2="151.45" gradientUnits="userSpaceOnUse"><stop offset="0" stop-color="#e8f4ff" stop-opacity="0"/><stop offset="1" stop-color="#feffff"/></linearGradient><linearGradient id="linear-gradient-10" x1="187.06" y1="466.02" x2="188.08" y2="461.99" gradientUnits="userSpaceOnUse"><stop offset="0" stop-color="#add7ff"/><stop offset="0.61" stop-color="#a0c6ff"/><stop offset="1" stop-color="#83b0ff"/></linearGradient><linearGradient id="linear-gradient-11" x1="184.52" y1="509.25" x2="370.79" y2="421.55" gradientUnits="userSpaceOnUse"><stop offset="0" stop-color="#d6feff"/><stop offset="1" stop-color="#addcff"/></linearGradient></defs><title>Payrun History</title><g id="Layer_2" data-name="Layer 2"><g id="Layer_4" data-name="Layer 4"><path class="cls-1" d="M65.67,449.58c-1.4-36.65-4.73-80.59-6.13-117.23-.37-9.66-1.31-20.66-7.95-26.43-7.81-6.8-19.27-2.61-28.21-7.13C11,292.55,8.74,273.58,8.22,257.86L5.58,178.08c-.48-14.49-.32-30.94,8.72-40.85,7.39-8.09,18.4-9.14,28.5-9.72q99.51-5.7,199.17-6.27c8.05,0,17,.33,22.78,6.92,11,12.59,2,36.82,11.28,51.27,11.58,18.11,39.2,4.77,53.76,19.65,8.52,8.71,9.21,23.67,9.27,36.92l.35,85.95c0,26,0,49.1,0,76.22,0,11.81-.66,24.27-6.12,34.2-8.48,15.38-25.73,19.85-41.26,22-59.6,8.09-181.67,12.24-185.08,12.24C91.51,466.57,65.11,470.14,65.67,449.58Z"/><path class="cls-2" d="M224.15,216.85c1.91,15,1.19,31.14-7.41,46.64a20.28,20.28,0,0,1-19.41-6.73l-1.13-7.35-.1-.1c-.27-.29-1.18-1.29-2.43-2.81l-1.91,10.4c-25.95,15.78-49.81,1.55-49.81,1.55a96.31,96.31,0,0,0,1.27-34,42.17,42.17,0,0,1-14.33,2.71c-21-.26-13-27.88-12.53-49.37s8.44-32,18.42-34.79,19.49-10,19.49-10,.5-4,2.72-5.35a5.89,5.89,0,0,1,2.8-.75c2.16,4.67,14.54,14,24.23,14,6.08,0,8.49-2.33,9.43-4.07a4.7,4.7,0,0,0,.61-1.85v-4.81l2.57,2.83s19.17,4.54,22.43,18.61c2.63,11.29,5.21,28.35,12.39,35.81a11.28,11.28,0,0,0,6.23,3.55c12.13,2.21,20.58-4.4,23.89,0S251.23,213.18,224.15,216.85Z"/><path class="cls-3" d="M231.45,187.4a5.49,5.49,0,0,1-5.36.11,14.29,14.29,0,0,1-4.64-4.42,55.21,55.21,0,0,1-6.75-10.76A24.34,24.34,0,0,1,212.38,160a32.32,32.32,0,0,0,.42-4.48,5.1,5.1,0,0,0-1.83-3.95c-1.42-1-3.52-.93-4.67-2.24-.94-1.08-.88-2.7-1.58-3.94a5.6,5.6,0,0,0-3.88-2.41c-1.54-.34-3.13-.36-4.63-.82A4.08,4.08,0,0,1,194,140.7a5.45,5.45,0,0,1-.53-3.51l0-.38a4.7,4.7,0,0,0,.61-1.85v-4.81l2.57,2.83s19.17,4.54,22.43,18.61C221.69,162.88,224.27,179.94,231.45,187.4Z"/><path class="cls-4" d="M133.59,95.1s0-11.36-10.6-9.29-7.11,25.24,12.74,19.7A41,41,0,0,1,133.59,95.1Z"/><path class="cls-5" d="M194.06,130.15V135s-.35,5.92-10,5.92-22.07-9.33-24.23-14v-1.8C170,128.66,181.11,130.08,194.06,130.15Z"/><path class="cls-4" d="M225.64,122.76a19.76,19.76,0,0,1-6.75,4.61c-5.92,2.67-15.21,4.74-28.8,4.81-22.14.1-55.68-10-56.5-37.08C124.85,74.59,119.32,29,173.24,23.24a114.47,114.47,0,0,1,12-.61c44.56,0,55.37,41.17,44.29,78.16C227.09,108.88,233.92,113.34,225.64,122.76Z"/><path class="cls-6" d="M225.64,122.76a19.76,19.76,0,0,1-6.75,4.61,24.59,24.59,0,0,0,3.27-7.37,28.11,28.11,0,0,0,.61-8.88c-.35-7.22-1.26-9.61-1.49-13.13-.75-11.41,7.05-13.94,5.5-22.21-1.22-6.56-6.32-6-10.58-14.07-5.79-11,.81-17.42-3.39-25.35-7.7-14.5-41.05-13-39.57-13.12a114.47,114.47,0,0,1,12-.61c44.56,0,55.37,41.17,44.29,78.16C227.09,108.88,233.92,113.34,225.64,122.76Z"/><path class="cls-7" d="M187.85,110.17c-7.9,0-14.33-7.57-14.33-16.88S180,76.42,187.85,76.42,202.19,84,202.19,93.29,195.76,110.17,187.85,110.17Zm0-31.95c-6.91,0-12.53,6.76-12.53,15.07s5.62,15.08,12.53,15.08,12.54-6.77,12.54-15.08S194.76,78.22,187.85,78.22Z"/><path class="cls-7" d="M221.74,108.07c-7.91,0-14.34-7.57-14.34-16.87s6.43-16.88,14.34-16.88,14.33,7.57,14.33,16.88S229.64,108.07,221.74,108.07Zm0-31.95c-6.91,0-12.54,6.77-12.54,15.08s5.63,15.07,12.54,15.07,12.53-6.76,12.53-15.07S228.65,76.12,221.74,76.12Z"/><path class="cls-7" d="M174.18,96.83c-.36-.1-35.94-10.13-50.06-12.12l.25-1.78c14.24,2,49.94,12.06,50.29,12.17Z"/><path class="cls-7" d="M208.36,96.27a7.21,7.21,0,0,0-6.74,0l-.92-1.55a9,9,0,0,1,8.52,0Z"/><path class="cls-2" d="M181.32,30.46c10.68,3.14,16.6-5.25,11.32-15.06-3.76-7,2.15-15.4,2.15-15.4s-18.4,1.73-22.44,12.05C168.77,21.2,174.65,28.5,181.32,30.46Z"/><path class="cls-8" d="M154.27,133l16.81,16.15s2.47-9.64,7-9.24c-9.18-3.43-14.92-7.87-18.26-13C156.53,126.8,154.88,129.11,154.27,133Z"/><path class="cls-4" d="M216.74,263.5a71.43,71.43,0,0,1-10.84,14.61c-32.51,34.11-101.65,24.31-101.65,24.31s20.93-4.55,32.41-28.51A72.38,72.38,0,0,0,142,258.45s23.86,14.23,49.81-1.55l1.92-10.4c1.24,1.52,2.15,2.52,2.42,2.81l.1.11,1.13,7.34A20.28,20.28,0,0,0,216.74,263.5Z"/><polygon class="cls-9" points="216.75 264 216.74 264 216.74 263 216.75 264"/><path class="cls-7" d="M200.94,120.39l-.8-1.61a18.48,18.48,0,0,1,11.49-1.91l-.29,1.78A16.7,16.7,0,0,0,200.94,120.39Z"/><path class="cls-10" d="M196.2,249.42l-.1-.11c-.27-.29-1.18-1.29-2.42-2.81-4.1-5-11.79-15.52-12.22-24.79-.58-12.67-4.07-72.88-4.07-72.88a14.45,14.45,0,0,1,9.39,0S203.93,209,205.9,218.62,196.2,249.42,196.2,249.42Z"/><path class="cls-11" d="M174.71,138.65s-.22,6.52-.11,8.42a2.05,2.05,0,0,0,2.79,1.76,13.77,13.77,0,0,1,9.39,0c1.94-1.52,2-6.52.59-8.23C183.33,141.31,179.17,140.43,174.71,138.65Z"/><path class="cls-12" d="M294.27,256.92c-18.52,1.78-40.51,4.93-56.43,7.37-12.79,2-21.66,3.48-21.66,3.48-6.82-39.87-3.88-92.32-31.35-90.89h-.21l88.65-8.79c13.09,5.4,11.61,25.65,14.21,48.75A349.91,349.91,0,0,0,294.27,256.92Z"/><path class="cls-13" d="M237.84,264.29c-.85,21.64-1.48,48.49-2.4,80.62q-.16,5.91-.35,12.06c-.46,15.57-2.66,103.85-2.66,103.85L145,464.9s2.36-62.93,3.31-84.22c.37-8.3.75-16.31,1-23.71,4.94-134.16,3.07-176.22,33.94-180l1.55-.14h0c21.45-1.12,24.36,30.64,27.86,63.59,1,9.24,2,18.57,3.49,27.3C216.18,267.77,225.05,266.25,237.84,264.29Z"/><path class="cls-4" d="M156.58,218.07c-15.79-15.74-1.27-26.9-1.27-26.9,10.19.4,19.54-.89,21.58,4.3C178.64,199.93,168.14,211.5,156.58,218.07Z"/><path class="cls-14" d="M76.69,239.27a10.87,10.87,0,0,1-5.61-1.61l.52-.86a9.66,9.66,0,0,0,5.26,1.47c1,0,4.23-.08,5.89-2.41,0,0,1.78-2.54.7-4.61-.8-1.53-2.66-1.92-3.89-2.17a9.35,9.35,0,0,0-5.77.74l-.41-.91a10.35,10.35,0,0,1,6.38-.81c1.33.27,3.56.74,4.57,2.69,1.36,2.61-.68,5.53-.76,5.65-2,2.74-5.52,2.81-6.69,2.83Z"/><path class="cls-15" d="M61.66,218.9l-.94-.33c1.16-3.39.28-6.93-.66-10.68-.85-3.43-1.74-7-.92-10.44A21.79,21.79,0,0,1,60.9,193a19.24,19.24,0,0,0,1.77-4.64c.68-3.63-.85-7.27-2.33-10.8-.17-.42-.35-.84-.52-1.25-2.27-5.54-2.44-9.73-.53-12.82l.85.53c-1.73,2.8-1.53,6.69.61,11.91l.51,1.24c1.54,3.67,3.13,7.45,2.39,11.38a19.82,19.82,0,0,1-1.85,4.88,21.26,21.26,0,0,0-1.69,4.22c-.76,3.22.1,6.65.92,10C62,211.37,62.92,215.22,61.66,218.9Z"/><path class="cls-15" d="M47.68,209.6c-3-3.11-2.64-8.07-1.33-11.67a46.6,46.6,0,0,1,2.31-5,37.78,37.78,0,0,0,2.54-5.75,8.22,8.22,0,0,0,.47-3.11,10.9,10.9,0,0,0-2.13-4.82c-.4-.61-.81-1.25-1.17-1.9-2.38-4.33-2.28-9.2-1.79-12.53a58.72,58.72,0,0,1,3.64-12.1l.93.35A57.71,57.71,0,0,0,47.57,165c-.47,3.17-.56,7.81,1.67,11.89.34.62.75,1.25,1.14,1.85A11.73,11.73,0,0,1,52.66,184a9.17,9.17,0,0,1-.5,3.49,39.12,39.12,0,0,1-2.61,5.91,43.32,43.32,0,0,0-2.26,4.89c-1.21,3.32-1.56,7.86,1.11,10.63Z"/><path class="cls-16" d="M225.16,248.59l-.14-1c6.19-.83,12.53-1.75,19.25-2.72,12.83-1.85,26.1-3.76,38.25-5l.11,1c-12.13,1.29-25.39,3.2-38.22,5.05C237.7,246.84,231.35,247.76,225.16,248.59Z"/><path class="cls-16" d="M222.74,232.06l-.12-1c5.31-.62,11-1.34,16.84-2.07,13.7-1.71,27.86-3.49,40.19-4.57l.09,1c-12.31,1.08-26.47,2.85-40.16,4.57C233.74,230.72,228.05,231.43,222.74,232.06Z"/><path class="cls-16" d="M220.5,216.27l-.12-1,8.23-1c15.86-1.89,33.82-4,48.81-5.27l.08,1c-15,1.24-32.92,3.38-48.77,5.28Z"/><path class="cls-16" d="M217.71,198.63l-.11-1c19.55-2.31,40.87-4.2,57-5l.06,1C258.54,194.44,237.24,196.32,217.71,198.63Z"/><path class="cls-16" d="M212.18,184.91l-.12-1c19.55-2.31,40.87-4.2,57-5l.06,1C253,180.72,231.7,182.6,212.18,184.91Z"/><path class="cls-17" d="M74.67,226.82c-2.43,1.59-5.36,2.15-8.24,2.59A145.24,145.24,0,0,1,38.17,231c-4.41-.2-9.36-.88-12-4.41,12.94-1.48,25.92-2.76,38.92-2.31C68.47,224.35,72.09,224.66,74.67,226.82Z"/><path class="cls-18" d="M74.67,226.82c-2.25,8-4.17,15.42-10.68,20.58A22.2,22.2,0,0,1,44.43,251a26,26,0,0,1-11-6.5,28.38,28.38,0,0,1-4.74-6.1c-9.29-1.82-16.66-8.83-25.73-11.52a6.38,6.38,0,0,1-2.4-1.16A1.69,1.69,0,0,1,0,224.4a2.06,2.06,0,0,1,1.92-1.8,5.8,5.8,0,0,1,2.78.6,85.44,85.44,0,0,0,8.73,3.23,20.41,20.41,0,0,0,7.56.7l.15,0c.52,0,1.05-.1,1.61-.18l3.43-.39c2.63,3.53,7.58,4.21,12,4.41a145.24,145.24,0,0,0,28.26-1.54C69.31,229,72.24,228.41,74.67,226.82Z"/><path class="cls-19" d="M237.84,264.29c-.85,21.64-1.48,48.49-2.4,80.62q-.16,5.91-.35,12.06c-.46,15.57-2.2,85.87-2.66,103.85-6,2.78-24.37-19.88-17.56-43.69-.13-6.7-2.77-13.55-5.6-19.81-4-8.77-8.54-18-7.21-27.57,1.63-11.59,11.48-20.43,14.46-31.74,2.8-10.61-.9-22-6.87-31.23-4-6.17-9.09-11.87-11-19a32.24,32.24,0,0,1-.15-14.43c2.25-11.81,8.54-22.24,14.22-32.92,1,9.24,2,18.57,3.49,27.3C216.18,267.77,225.05,266.25,237.84,264.29Z"/><path class="cls-20" d="M194.24,462.65l-12.77.5a8.57,8.57,0,0,1,5.63-2.32l.56,0h.21A13.35,13.35,0,0,1,194.24,462.65Z"/><path class="cls-21" d="M290.81,506.17H208.89L204,481.81c-1.18-5.89-2.51-12.09-6.52-16.56a13.71,13.71,0,0,0-3.24-2.61,13.34,13.34,0,0,0-6.37-1.83h-.21l80.26-3.16a9.63,9.63,0,0,1,1.86,0h0a13.79,13.79,0,0,1,8.93,4.41c4,4.48,5.35,10.67,6.53,16.57q2.53,12.63,5.08,25.27C290.48,504.64,290.64,505.4,290.81,506.17Z"/></g></g></svg>